<mxfile host="app.diagrams.net" modified="2022-11-23T01:31:50.511Z" agent="5.0 (Macintosh; Intel Mac OS X 10_15_7) AppleWebKit/605.1.15 (KHTML, like Gecko) Version/16.0 Safari/605.1.15" version="20.6.0" etag="Z3MNG9J9NftQRqzOsv_k" type="github">
  <diagram id="S640Zv0ohj6uDAE-HmlY" name="Page-1">
    <mxGraphModel dx="2934" dy="891" grid="1" gridSize="10" guides="1" tooltips="1" connect="1" arrows="1" fold="1" page="1" pageScale="1" pageWidth="1350" pageHeight="700" background="#182E3E" math="0" shadow="0">
      <root>
        <mxCell id="0" />
        <mxCell id="1" parent="0" />
        <mxCell id="r2TNYtdWfa9Stc2-a_sm-36" value="" style="shape=flexArrow;endArrow=classic;html=1;rounded=1;labelBackgroundColor=none;strokeColor=#CCFFFF;strokeWidth=3;fontFamily=Verdana;fontSize=20;fontColor=#CCFFFF;fillColor=#003333;exitX=0.5;exitY=1;exitDx=0;exitDy=0;endSize=7.685714285714286;" edge="1" parent="1" source="r2TNYtdWfa9Stc2-a_sm-24">
          <mxGeometry width="50" height="50" relative="1" as="geometry">
            <mxPoint x="-355" y="306" as="sourcePoint" />
            <mxPoint x="-295" y="266" as="targetPoint" />
          </mxGeometry>
        </mxCell>
        <mxCell id="r2TNYtdWfa9Stc2-a_sm-38" value="" style="shape=flexArrow;endArrow=classic;html=1;rounded=1;labelBackgroundColor=none;strokeColor=#CCCCCC;strokeWidth=3;fontFamily=Verdana;fontSize=20;fontColor=#CCCCCC;fillColor=#333333;exitX=0.5;exitY=1;exitDx=0;exitDy=0;endSize=7.685714285714286;" edge="1" parent="1" source="r2TNYtdWfa9Stc2-a_sm-25">
          <mxGeometry width="50" height="50" relative="1" as="geometry">
            <mxPoint x="-355" y="306" as="sourcePoint" />
            <mxPoint x="-125" y="266" as="targetPoint" />
          </mxGeometry>
        </mxCell>
        <mxCell id="r2TNYtdWfa9Stc2-a_sm-20" value="" style="shape=flexArrow;endArrow=classic;html=1;rounded=1;strokeColor=#F19C99;fontFamily=Verdana;fontSize=26;fontColor=#D5E8D4;endWidth=28;endSize=13;width=40;labelBackgroundColor=none;strokeWidth=3;fillColor=#660000;exitX=1;exitY=0.5;exitDx=0;exitDy=0;entryX=0;entryY=0.5;entryDx=0;entryDy=0;" edge="1" parent="1" source="r2TNYtdWfa9Stc2-a_sm-7" target="r2TNYtdWfa9Stc2-a_sm-19">
          <mxGeometry width="50" height="50" relative="1" as="geometry">
            <mxPoint x="-385" y="394" as="sourcePoint" />
            <mxPoint x="-335" y="404" as="targetPoint" />
          </mxGeometry>
        </mxCell>
        <mxCell id="r2TNYtdWfa9Stc2-a_sm-21" value="&lt;font&gt;NO&lt;/font&gt;" style="edgeLabel;align=center;verticalAlign=middle;resizable=0;points=[];fontSize=22;fontFamily=Verdana;fontColor=#F19C99;html=1;labelBackgroundColor=none;" vertex="1" connectable="0" parent="r2TNYtdWfa9Stc2-a_sm-20">
          <mxGeometry x="-0.35" y="-1" relative="1" as="geometry">
            <mxPoint x="6" y="-2" as="offset" />
          </mxGeometry>
        </mxCell>
        <mxCell id="r2TNYtdWfa9Stc2-a_sm-17" value="" style="shape=flexArrow;endArrow=classic;html=1;rounded=1;strokeColor=#D5E8D4;fontFamily=Verdana;fontSize=26;fontColor=#D5E8D4;exitX=0.25;exitY=1;exitDx=0;exitDy=0;endWidth=28;endSize=15;width=44;labelBackgroundColor=none;strokeWidth=3;fillColor=#003300;entryX=1;entryY=0;entryDx=0;entryDy=0;" edge="1" parent="1" source="r2TNYtdWfa9Stc2-a_sm-7" target="r2TNYtdWfa9Stc2-a_sm-8">
          <mxGeometry width="50" height="50" relative="1" as="geometry">
            <mxPoint x="-495" y="409" as="sourcePoint" />
            <mxPoint x="-395" y="454" as="targetPoint" />
          </mxGeometry>
        </mxCell>
        <mxCell id="r2TNYtdWfa9Stc2-a_sm-18" value="&lt;span style=&quot;font-size: 20px;&quot;&gt;YES&lt;/span&gt;" style="edgeLabel;html=1;align=center;verticalAlign=middle;resizable=0;points=[];fontSize=20;fontFamily=Verdana;fontColor=#D5E8D4;labelBackgroundColor=none;" vertex="1" connectable="0" parent="r2TNYtdWfa9Stc2-a_sm-17">
          <mxGeometry x="-0.35" y="-1" relative="1" as="geometry">
            <mxPoint y="4" as="offset" />
          </mxGeometry>
        </mxCell>
        <mxCell id="r2TNYtdWfa9Stc2-a_sm-12" value="" style="shape=flexArrow;endArrow=classic;html=1;rounded=1;strokeColor=#D5E8D4;fontFamily=Verdana;fontSize=26;fontColor=#D5E8D4;endWidth=28;endSize=15;width=40;labelBackgroundColor=none;strokeWidth=3;fillColor=#003300;exitX=1;exitY=0.5;exitDx=0;exitDy=0;entryX=0;entryY=0.5;entryDx=0;entryDy=0;" edge="1" parent="1" source="r2TNYtdWfa9Stc2-a_sm-11" target="r2TNYtdWfa9Stc2-a_sm-1">
          <mxGeometry width="50" height="50" relative="1" as="geometry">
            <mxPoint x="-1025" y="374" as="sourcePoint" />
            <mxPoint x="-975" y="333.5" as="targetPoint" />
          </mxGeometry>
        </mxCell>
        <mxCell id="r2TNYtdWfa9Stc2-a_sm-13" value="&lt;span style=&quot;font-size: 22px;&quot;&gt;YES&lt;/span&gt;" style="edgeLabel;html=1;align=center;verticalAlign=middle;resizable=0;points=[];fontSize=22;fontFamily=Verdana;fontColor=#D5E8D4;labelBackgroundColor=none;" vertex="1" connectable="0" parent="r2TNYtdWfa9Stc2-a_sm-12">
          <mxGeometry x="-0.35" y="-1" relative="1" as="geometry">
            <mxPoint x="6" y="-2" as="offset" />
          </mxGeometry>
        </mxCell>
        <mxCell id="r2TNYtdWfa9Stc2-a_sm-14" value="" style="shape=flexArrow;endArrow=classic;html=1;rounded=1;strokeColor=#F19C99;fontFamily=Verdana;fontSize=26;fontColor=#D5E8D4;exitX=0.5;exitY=1;exitDx=0;exitDy=0;endWidth=28;endSize=13;width=44;labelBackgroundColor=none;strokeWidth=3;fillColor=#660000;" edge="1" parent="1" source="r2TNYtdWfa9Stc2-a_sm-11" target="r2TNYtdWfa9Stc2-a_sm-16">
          <mxGeometry width="50" height="50" relative="1" as="geometry">
            <mxPoint x="-1215" y="399" as="sourcePoint" />
            <mxPoint x="-1205" y="474" as="targetPoint" />
          </mxGeometry>
        </mxCell>
        <mxCell id="r2TNYtdWfa9Stc2-a_sm-15" value="&lt;span style=&quot;font-size: 22px;&quot;&gt;NO&lt;/span&gt;" style="edgeLabel;html=1;align=center;verticalAlign=middle;resizable=0;points=[];fontSize=22;fontFamily=Verdana;fontColor=#F19C99;labelBackgroundColor=none;" vertex="1" connectable="0" parent="r2TNYtdWfa9Stc2-a_sm-14">
          <mxGeometry x="-0.35" y="-1" relative="1" as="geometry">
            <mxPoint y="4" as="offset" />
          </mxGeometry>
        </mxCell>
        <mxCell id="r2TNYtdWfa9Stc2-a_sm-5" value="" style="shape=flexArrow;endArrow=classic;html=1;rounded=1;strokeColor=#F19C99;fontFamily=Verdana;fontSize=26;fontColor=#D5E8D4;exitX=0.75;exitY=1;exitDx=0;exitDy=0;endWidth=28;endSize=13;width=44;labelBackgroundColor=none;strokeWidth=3;fillColor=#660000;entryX=0;entryY=0;entryDx=0;entryDy=0;" edge="1" parent="1" source="r2TNYtdWfa9Stc2-a_sm-1" target="r2TNYtdWfa9Stc2-a_sm-8">
          <mxGeometry width="50" height="50" relative="1" as="geometry">
            <mxPoint x="-635" y="344" as="sourcePoint" />
            <mxPoint x="-685" y="464" as="targetPoint" />
          </mxGeometry>
        </mxCell>
        <mxCell id="r2TNYtdWfa9Stc2-a_sm-6" value="&lt;span style=&quot;font-size: 22px;&quot;&gt;NO&lt;/span&gt;" style="edgeLabel;html=1;align=center;verticalAlign=middle;resizable=0;points=[];fontSize=22;fontFamily=Verdana;fontColor=#F19C99;labelBackgroundColor=none;" vertex="1" connectable="0" parent="r2TNYtdWfa9Stc2-a_sm-5">
          <mxGeometry x="-0.35" y="-1" relative="1" as="geometry">
            <mxPoint y="4" as="offset" />
          </mxGeometry>
        </mxCell>
        <mxCell id="r2TNYtdWfa9Stc2-a_sm-2" value="" style="shape=flexArrow;endArrow=classic;html=1;rounded=1;strokeColor=#D5E8D4;fontFamily=Verdana;fontSize=26;fontColor=#D5E8D4;exitX=1;exitY=0.5;exitDx=0;exitDy=0;endWidth=28;endSize=15;width=40;labelBackgroundColor=none;strokeWidth=3;fillColor=#003300;" edge="1" parent="1" source="r2TNYtdWfa9Stc2-a_sm-1" target="r2TNYtdWfa9Stc2-a_sm-7">
          <mxGeometry width="50" height="50" relative="1" as="geometry">
            <mxPoint x="-695" y="549" as="sourcePoint" />
            <mxPoint x="-565" y="334" as="targetPoint" />
          </mxGeometry>
        </mxCell>
        <mxCell id="r2TNYtdWfa9Stc2-a_sm-4" value="YES" style="edgeLabel;align=center;verticalAlign=middle;resizable=0;points=[];fontSize=22;fontFamily=Verdana;fontColor=#D5E8D4;html=1;labelBackgroundColor=none;" vertex="1" connectable="0" parent="r2TNYtdWfa9Stc2-a_sm-2">
          <mxGeometry x="-0.35" y="-1" relative="1" as="geometry">
            <mxPoint x="6" y="-2" as="offset" />
          </mxGeometry>
        </mxCell>
        <mxCell id="r2TNYtdWfa9Stc2-a_sm-1" value="Is there an overpass at the &lt;font color=&quot;#ccffff&quot;&gt;start&lt;/font&gt; of the segment?" style="rounded=1;whiteSpace=wrap;html=1;strokeColor=#FFFFFF;fontColor=#FFFFFF;fillColor=none;strokeWidth=5;fontFamily=Verdana;fontSize=26;spacing=10;" vertex="1" parent="1">
          <mxGeometry x="-975" y="269" width="240" height="155" as="geometry" />
        </mxCell>
        <mxCell id="r2TNYtdWfa9Stc2-a_sm-7" value="&lt;font style=&quot;font-size: 26px;&quot; color=&quot;#ffffff&quot;&gt;Is there also an overpass at the &lt;/font&gt;&lt;font color=&quot;#ccffff&quot; style=&quot;font-size: 26px;&quot;&gt;end&lt;/font&gt;&lt;font style=&quot;font-size: 26px;&quot; color=&quot;#ffffff&quot;&gt; of the segment?&lt;/font&gt;" style="rounded=1;whiteSpace=wrap;html=1;labelBackgroundColor=none;strokeColor=#FFFFFF;strokeWidth=5;fontFamily=Verdana;fontSize=22;fontColor=#F19C99;fillColor=none;spacing=10;" vertex="1" parent="1">
          <mxGeometry x="-655" y="269" width="250" height="155" as="geometry" />
        </mxCell>
        <mxCell id="r2TNYtdWfa9Stc2-a_sm-8" value="&lt;font style=&quot;font-size: 26px;&quot;&gt;Segment is drawn in full&lt;/font&gt;" style="rounded=1;whiteSpace=wrap;html=1;labelBackgroundColor=none;strokeColor=#CCFFFF;strokeWidth=5;fontFamily=Verdana;fontSize=20;fontColor=#CCFFFF;fillColor=#003333;" vertex="1" parent="1">
          <mxGeometry x="-794" y="504" width="202" height="100" as="geometry" />
        </mxCell>
        <mxCell id="r2TNYtdWfa9Stc2-a_sm-11" value="Is there an overpass at either end of the segment?" style="rounded=1;whiteSpace=wrap;html=1;labelBackgroundColor=none;strokeColor=#FFFFFF;strokeWidth=5;fontFamily=Verdana;fontSize=26;fontColor=#FFFFFF;fillColor=none;spacing=10;" vertex="1" parent="1">
          <mxGeometry x="-1285" y="269" width="230" height="155" as="geometry" />
        </mxCell>
        <mxCell id="r2TNYtdWfa9Stc2-a_sm-16" value="&lt;font style=&quot;font-size: 26px;&quot;&gt;Segment will not be drawn&lt;/font&gt;" style="rounded=1;whiteSpace=wrap;html=1;labelBackgroundColor=none;strokeColor=#CCCCCC;strokeWidth=5;fontFamily=Verdana;fontSize=20;fontColor=#CCCCCC;fillColor=#333333;endArrow=classic;endSize=13;" vertex="1" parent="1">
          <mxGeometry x="-1280" y="504" width="220" height="100" as="geometry" />
        </mxCell>
        <mxCell id="r2TNYtdWfa9Stc2-a_sm-30" style="edgeStyle=orthogonalEdgeStyle;rounded=1;orthogonalLoop=1;jettySize=auto;html=1;exitX=0.5;exitY=1;exitDx=0;exitDy=0;labelBackgroundColor=none;strokeColor=#CCFFFF;strokeWidth=3;fontFamily=Verdana;fontSize=20;fontColor=#CCFFFF;fillColor=#003333;shape=flexArrow;endWidth=24.126984126984127;endSize=9.276190476190475;width=26.666666666666664;" edge="1" parent="1" source="r2TNYtdWfa9Stc2-a_sm-19">
          <mxGeometry relative="1" as="geometry">
            <mxPoint x="-210" y="486" as="targetPoint" />
            <Array as="points">
              <mxPoint x="-210" y="446" />
              <mxPoint x="-210" y="446" />
            </Array>
          </mxGeometry>
        </mxCell>
        <mxCell id="r2TNYtdWfa9Stc2-a_sm-19" value="Calculate 25% of total length at current scale" style="rounded=1;whiteSpace=wrap;html=1;labelBackgroundColor=none;strokeColor=#FFFFFF;strokeWidth=5;fontFamily=Verdana;fontSize=26;fontColor=#FFFFFF;fillColor=none;spacing=10;" vertex="1" parent="1">
          <mxGeometry x="-325" y="269" width="230" height="155" as="geometry" />
        </mxCell>
        <mxCell id="r2TNYtdWfa9Stc2-a_sm-24" value="Variable Scale &lt;br&gt;Value" style="ellipse;whiteSpace=wrap;html=1;labelBackgroundColor=none;strokeColor=#CCFFFF;strokeWidth=5;fontFamily=Verdana;fontSize=20;fontColor=#CCFFFF;fillColor=#003333;" vertex="1" parent="1">
          <mxGeometry x="-355" y="96" width="120" height="120" as="geometry" />
        </mxCell>
        <mxCell id="r2TNYtdWfa9Stc2-a_sm-25" value="Static Length Value" style="ellipse;whiteSpace=wrap;html=1;aspect=fixed;labelBackgroundColor=none;strokeColor=#CCCCCC;strokeWidth=5;fontFamily=Verdana;fontSize=20;fontColor=#CCCCCC;fillColor=#333333;" vertex="1" parent="1">
          <mxGeometry x="-185" y="96" width="120" height="120" as="geometry" />
        </mxCell>
        <mxCell id="r2TNYtdWfa9Stc2-a_sm-34" value="" style="group" vertex="1" connectable="0" parent="1">
          <mxGeometry x="-245" y="526" width="70" height="20" as="geometry" />
        </mxCell>
        <mxCell id="r2TNYtdWfa9Stc2-a_sm-31" value="" style="curved=1;endArrow=classic;html=1;rounded=1;labelBackgroundColor=none;strokeColor=#B3B3B3;strokeWidth=6;fontFamily=Verdana;fontSize=20;fontColor=#CCFFFF;fillColor=#B3B3B3;shape=flexArrow;fontStyle=1" edge="1" parent="r2TNYtdWfa9Stc2-a_sm-34">
          <mxGeometry width="50" height="50" relative="1" as="geometry">
            <mxPoint x="-40" as="sourcePoint" />
            <mxPoint x="120" y="20" as="targetPoint" />
            <Array as="points">
              <mxPoint y="20" />
              <mxPoint x="70" />
            </Array>
          </mxGeometry>
        </mxCell>
        <mxCell id="r2TNYtdWfa9Stc2-a_sm-33" value="" style="curved=1;endArrow=none;html=1;rounded=1;labelBackgroundColor=none;strokeColor=#99FFFF;strokeWidth=1;fontFamily=Verdana;fontSize=20;fontColor=#CCFFFF;fillColor=#99FFFF;shape=flexArrow;fontStyle=1;endFill=0;startSize=6;" edge="1" parent="r2TNYtdWfa9Stc2-a_sm-34">
          <mxGeometry width="50" height="50" relative="1" as="geometry">
            <mxPoint x="-40" as="sourcePoint" />
            <mxPoint x="70" as="targetPoint" />
            <Array as="points">
              <mxPoint y="20" />
              <mxPoint x="70" />
            </Array>
          </mxGeometry>
        </mxCell>
        <mxCell id="r2TNYtdWfa9Stc2-a_sm-39" value="25% end cut" style="text;html=1;strokeColor=none;fillColor=none;align=center;verticalAlign=middle;whiteSpace=wrap;rounded=0;labelBackgroundColor=none;strokeWidth=5;fontFamily=Verdana;fontSize=26;fontColor=#CCFFFF;" vertex="1" parent="1">
          <mxGeometry x="-295" y="564" width="170" height="40" as="geometry" />
        </mxCell>
      </root>
    </mxGraphModel>
  </diagram>
</mxfile>
